
<?xml version="1.0" encoding="UTF-8"?>
<!DOCTYPE svg PUBLIC "-//W3C//DTD SVG 1.1//EN" "http://www.w3.org/Graphics/SVG/1.1/DTD/svg11.dtd">
<!-- Creator: CorelDRAW X6 -->
<svg xmlns="http://www.w3.org/2000/svg" xml:space="preserve" width="5.22222in" height="1.875in" version="1.1" style="shape-rendering:geometricPrecision; text-rendering:geometricPrecision; image-rendering:optimizeQuality; fill-rule:evenodd; clip-rule:evenodd"
viewBox="0 0 5222 1875"
 xmlns:xlink="http://www.w3.org/1999/xlink">
 <defs>
  <style type="text/css">
   <![CDATA[
    .fil1 {fill:#4C1F43}
    .fil0 {fill:#F26B35}
   ]]>
  </style>
 </defs>
 <g id="Layer_x0020_1">
  <metadata id="CorelCorpID_0Corel-Layer"/>
  <path class="fil0" d="M1242 1859l89 -120 0 120 30 0 0 -169 -26 0 -89 120 0 -120 -30 0 0 169 26 0zm272 0l29 0 0 -169 -29 0 0 69 -77 0 0 -69 -30 0 0 169 30 0 0 -72 77 0 0 72zm55 -141l55 0 0 141 30 0 0 -141 55 0 0 -28 -139 0 0 28zm165 141l100 0 0 -28 -71 0 0 -44 61 0 0 -28 -61 0 0 -42 68 0 0 -28 -98 0 0 169zm239 0l29 0 0 -169 -107 0 -2 34c-7,102 -25,107 -38,106l-1 29c33,5 55,-11 65,-109l3 -32 49 0 0 141zm176 0l29 0 0 -169 -107 0 -2 34c-8,102 -25,107 -38,106l-1 29c33,5 55,-11 65,-109l3 -32 49 0 0 141zm76 0l100 0 0 -28 -71 0 0 -44 61 0 0 -28 -61 0 0 -42 68 0 0 -28 -98 0 0 169zm139 0l30 0 0 -87 69 87 38 0 -74 -90 70 -79 -36 0 -67 80 0 -80 -30 0 0 169zm140 -141l55 0 0 141 30 0 0 -141 55 0 0 -28 -139 0 0 28zm304 -28l-30 0 -40 94 -55 -94 -34 0 75 123 -2 6c-3,7 -9,12 -17,12 -5,0 -8,-1 -13,-4l-10 25c5,4 15,7 23,7 21,0 34,-14 46,-39l57 -129zm-13 169l30 0 18 -43 72 0 18 43 32 0 -71 -170 -26 0 -71 170zm84 -131l25 60 -50 0 25 -60zm209 131l29 0 0 -169 -107 0 -2 34c-8,102 -25,107 -38,106l-1 29c33,5 55,-11 65,-109l3 -32 49 0 0 141zm123 -85c21,0 35,8 35,28 0,21 -14,30 -35,30 -6,0 -11,0 -16,-1l0 -55c7,-1 13,-1 17,-1zm-17 -84l-30 0 0 169c10,0 27,0 43,0 45,0 70,-22 70,-58 0,-33 -20,-55 -64,-55 -5,0 -12,0 -19,1l0 -58zm224 169l29 0 0 -169 -29 0 0 69 -77 0 0 -69 -30 0 0 169 30 0 0 -72 77 0 0 72zm209 0l29 0 0 -169 -29 0 0 169zm-86 -85c21,0 33,9 33,28 0,20 -12,30 -33,30 -6,0 -11,0 -16,-1l0 -55c7,-1 12,-1 16,-1zm-16 -84l-30 0 0 169c10,0 26,0 42,0 43,0 68,-22 68,-58 0,-33 -20,-55 -62,-55 -5,0 -11,0 -19,1l0 -58zm179 169l100 0 0 -28 -71 0 0 -44 61 0 0 -28 -61 0 0 -42 68 0 0 -28 -98 0 0 169zm307 -39c-12,9 -26,14 -40,14 -35,0 -58,-24 -58,-59 0,-37 24,-59 55,-59 17,0 28,5 38,11l13 -22c-11,-10 -29,-17 -51,-17 -56,0 -86,39 -86,87 0,53 36,87 87,87 22,0 43,-8 54,-19l-11 -22zm67 39l89 -120 0 120 30 0 0 -169 -26 0 -89 120 0 -120 -30 0 0 169 26 0zm283 -39c-12,9 -26,14 -40,14 -35,0 -58,-24 -58,-59 0,-37 24,-59 55,-59 17,0 28,5 38,11l13 -22c-11,-10 -29,-17 -51,-17 -56,0 -86,39 -86,87 0,53 36,87 87,87 22,0 43,-8 54,-19l-11 -22zm20 -102l55 0 0 141 30 0 0 -141 55 0 0 -28 -139 0 0 28zm165 141l100 0 0 -28 -71 0 0 -44 61 0 0 -28 -61 0 0 -42 68 0 0 -28 -98 0 0 169zm139 0l30 0 0 -121 54 74 4 0 53 -75 0 122 29 0 0 -169 -28 0 -55 79 -58 -79 -30 0 0 169zm350 0l29 0 0 -169 -29 0 0 169zm-86 -85c21,0 33,9 33,28 0,20 -12,30 -33,30 -6,0 -11,0 -16,-1l0 -55c7,-1 12,-1 16,-1zm-16 -84l-30 0 0 169c10,0 26,0 42,0 43,0 68,-22 68,-58 0,-33 -20,-55 -62,-55 -5,0 -11,0 -19,1l0 -58z"/>
  <polygon class="fil1" points="2,532 2,996 2,996 2,1424 372,1638 372,1638 756,1859 755,1661 469,1496 469,1495 174,1325 174,983 174,983 174,632 489,449 490,450 714,320 714,121 403,300 404,300 "/>
  <polygon class="fil0" points="1392,582 1101,415 1101,414 810,247 810,247 810,6 862,36 1205,234 1205,234 1392,341 "/>
  <path class="fil1" d="M4704 1511l147 0 0 -301 75 0c231,0 284,-146 284,-246 0,-75 -30,-248 -284,-248l-222 0 0 794zm147 -652l87 0c39,0 126,6 126,104 0,98 -87,104 -126,104l-87 0 0 -208z"/>
  <polygon class="fil1" points="4621,717 4460,717 4277,1140 4067,717 3889,717 4194,1309 4101,1511 4262,1511 "/>
  <polygon class="fil1" points="3703,717 3575,717 3260,1511 3422,1511 3639,921 3856,1511 4018,1511 "/>
  <polygon class="fil1" points="2531,717 2531,1511 2678,1511 3032,953 3032,1511 3180,1511 3180,717 3032,717 2678,1275 2678,717 "/>
  <polygon class="fil1" points="1734,1511 1884,1511 2238,953 2238,1511 2385,1511 2385,717 2226,717 1881,1260 1881,717 1722,717 1218,1511 1380,1511 1734,953 "/>
  <path class="fil0" d="M682 940l-182 255 -82 0 0 -410 94 0 0 255 182 -255 82 0 0 410 -94 0 0 -255zm483 144l36 70c-13,14 -31,26 -56,35 -24,9 -50,13 -78,13 -64,0 -115,-19 -155,-58 -40,-39 -60,-91 -60,-154 0,-62 19,-113 56,-152 38,-40 90,-60 158,-60 26,0 50,4 72,12 22,8 40,18 53,31l-42 70c-27,-17 -55,-25 -84,-25 -33,0 -61,11 -83,33 -21,21 -32,52 -32,91 0,36 12,66 35,90 23,23 53,35 90,35 33,0 63,-10 89,-30z"/>
 </g>
</svg>
