<svg height="100%" viewBox="0 0 106 33" xmlns="http://www.w3.org/2000/svg"><g fill-rule="evenodd"><path fill="#33A04F" d="M9.42048347,10.9671088 L23.3249438,2.9142361 C22.7435294,2.57151525 22.1398656,2.26570281 21.5135161,2 L9.42048347,9.00399632 L4.0358721,5.88473449 C3.65164875,6.30899276 3.29179383,6.7577311 2.95537247,7.22178516 L9.42048347,10.9671088 L9.42048347,10.9671088 Z M26.250775,5.14606436 C25.8196845,4.72827133 25.3649735,4.33520944 24.8898827,3.97020547 L9.42048347,12.930598 L2.0361033,8.65223668 C1.75745568,9.14397205 1.50411133,9.65246684 1.27793995,10.1781604 L9.42048347,14.8925179 L26.250775,5.14606436 L26.250775,5.14606436 Z M9.42048347,16.8571369 L0.683499998,11.7965435 C0.512235478,12.3575763 0.372257271,12.930598 0.264188611,13.5178056 L9.42048347,18.8216303 L28.4448057,7.80164874 C28.1307584,7.32522911 27.7931529,6.86469013 27.430992,6.42392351 L9.42048347,16.8571369 L9.42048347,16.8571369 Z M31,16.3913253 C31,25.0101268 24.0609201,32 15.5000623,32 C6.94020177,32 0,25.0101268 0,16.3913253 C0,16.0395656 0.0143343667,15.6928276 0.0362721801,15.3489141 L9.42048347,20.7856844 L29.2981367,9.26976189 C30.3859282,11.4049881 31,13.8251245 31,16.3913253 L31,16.3913253 Z"></path><path fill="#E48700" d="M48.0556999,26.5406001 C48.0556999,29.8834 46.2746999,31.6644 43.8771999,31.6644 C41.5071,31.6644 39.7535,29.9108 39.7535,26.5954001 C39.7535,23.2526001 41.5345,21.4716001 43.9319999,21.4716001 C46.3020999,21.4716001 48.0556999,23.2252001 48.0556999,26.5406001 Z M46.8500999,26.5817001 C46.8500999,23.8006001 45.6581999,22.5402001 43.9045999,22.5402001 C42.151,22.5402001 40.9591,23.8006001 40.9591,26.5817001 C40.9591,29.3628 42.151,30.6232 43.9045999,30.6232 C45.6581999,30.6232 46.8500999,29.3628 46.8500999,26.5817001 Z M54.4672998,31.5 L54.4672998,28.2942 L51.0422998,28.2942 L51.0422998,31.5 L49.8640998,31.5 L49.8640998,24.5130001 L51.0422998,24.5130001 L51.0422998,27.3489001 L54.4672998,27.3489001 L54.4672998,24.5130001 L55.6454998,24.5130001 L55.6454998,31.5 L54.4672998,31.5 Z M58.7416997,24.5130001 L63.5503997,24.5130001 L63.5503997,31.5 L62.3858997,31.5 L62.3858997,25.4720001 L59.8102997,25.4720001 C59.7006997,30.2533 59.1800997,31.5822 57.1524997,31.5822 C56.9469998,31.5822 56.7962998,31.5685 56.7003998,31.5548 L56.7003998,30.6232 C56.7962998,30.6369 56.9195998,30.6506 57.0565997,30.6506 C58.5087997,30.6506 58.5909997,28.9381 58.7416997,24.5130001 Z M68.2220996,25.3213001 C67.4137996,25.3213001 66.6739996,25.6090001 65.9341996,26.0337001 L65.6327996,25.1021001 C66.3862996,24.6911001 67.3452996,24.3486001 68.4412996,24.3486001 C69.9071996,24.3486001 70.7976996,24.9651001 70.7976996,26.7050001 L70.7976996,29.9108 C70.7976996,30.9794 70.8661996,31.3219 70.9346996,31.5 L69.8249996,31.5 C69.7564996,31.3767 69.6879996,31.1575 69.6605996,30.6232 C69.0577996,31.2671 68.2494996,31.6644 67.3452996,31.6644 C66.1259996,31.6644 65.2354996,30.9383 65.2354996,29.5409 C65.2354996,28.0476 66.2492996,27.1982001 68.5097996,27.1982001 C68.7974996,27.1982001 69.1536996,27.2119001 69.6468996,27.2804001 L69.6468996,26.8009001 C69.6468996,25.7186001 69.1673996,25.3213001 68.2220996,25.3213001 Z M67.6603996,30.7328 C68.4138996,30.7328 69.1125996,30.2944 69.6468996,29.7738 L69.6468996,28.1024 C69.0851996,28.0202 68.8522996,28.0065 68.5782996,28.0065 C66.9616996,28.0065 66.3862996,28.486 66.3862996,29.4176 C66.3862996,30.2944 66.8931996,30.7328 67.6603996,30.7328 Z M78.6066994,24.5130001 L78.6066994,31.5 L77.5106995,31.5 L77.5106995,26.2940001 L73.8390995,31.5 L72.7978995,31.5 L72.7978995,24.5130001 L73.8938995,24.5130001 L73.8938995,29.719 L77.5654995,24.5130001 L78.6066994,24.5130001 Z M75.7022995,22.8964001 C76.5516995,22.8964001 76.8667995,22.3621001 76.8667995,21.6360001 L77.7572995,21.6360001 C77.7572995,22.8416001 77.1270995,23.6088001 75.7022995,23.6088001 C74.2774995,23.6088001 73.6472995,22.8416001 73.6472995,21.6360001 L74.5377995,21.6360001 C74.5377995,22.3621001 74.8528995,22.8964001 75.7022995,22.8964001 Z M85.3059994,31.5 L85.3059994,28.2942 L81.8809994,28.2942 L81.8809994,31.5 L80.7027994,31.5 L80.7027994,24.5130001 L81.8809994,24.5130001 L81.8809994,27.3489001 L85.3059994,27.3489001 L85.3059994,24.5130001 L86.4841993,24.5130001 L86.4841993,31.5 L85.3059994,31.5 Z" opacity="0.900000036"></path><path fill="#33A04F" d="M47.01,12.58 L47.4,13.675 C46.62,14.26 45.57,14.68 44.34,14.68 C41.715,14.68 39.825,12.82 39.825,9.205 C39.825,5.5 41.805,3.52 44.535,3.52 C45.675,3.52 46.605,3.865 47.37,4.435 L46.98,5.635 C46.215,5.08 45.48,4.69 44.475,4.69 C42.525,4.69 41.145,6.13 41.145,9.13 C41.145,12.13 42.525,13.54 44.475,13.54 C45.45,13.54 46.215,13.195 47.01,12.58 Z M52.35,8.005 C51.51,8.005 50.745,8.44 50.07,9.145 L50.07,9.28 C50.07,12.49 50.985,13.66 52.365,13.66 C53.505,13.66 54.435,12.85 54.435,10.84 C54.435,8.92 53.595,8.005 52.35,8.005 Z M53.025,4.795 C51.39,4.81 50.295,5.62 50.055,8.11 C50.76,7.375 51.66,6.895 52.695,6.895 C54.435,6.895 55.71,8.275 55.71,10.735 C55.71,13.405 54.195,14.68 52.35,14.68 C50.25,14.68 48.78,13.03 48.78,9.28 C48.78,5.11 50.61,3.61 53.025,3.61 C53.88,3.61 54.525,3.595 54.93,3.46 L54.93,4.645 C54.495,4.765 53.79,4.795 53.025,4.795 Z M60.6,7.66 C59.4,7.66 58.575,8.515 58.41,10.045 L62.49,10.045 C62.475,8.365 61.68,7.66 60.6,7.66 Z M63.69,10.96 L58.41,10.96 C58.5,12.85 59.445,13.66 60.825,13.66 C61.62,13.66 62.37,13.39 63.18,12.925 L63.51,13.9 C62.7,14.395 61.65,14.68 60.66,14.68 C58.53,14.68 57.105,13.36 57.105,10.795 C57.105,8.11 58.665,6.67 60.645,6.67 C62.49,6.67 63.72,7.915 63.72,10.33 C63.72,10.6 63.72,10.735 63.69,10.96 Z M65.625,6.85 L66.915,6.85 L66.915,7.93 C67.575,7.15 68.415,6.67 69.42,6.67 C71.13,6.67 72.375,8.035 72.375,10.6 C72.375,13.285 71.01,14.68 69.24,14.68 C68.325,14.68 67.575,14.305 66.915,13.54 L66.915,17.65 L65.625,17.65 L65.625,6.85 Z M69.09,7.795 C68.28,7.795 67.56,8.23 66.915,8.95 L66.915,12.535 C67.53,13.24 68.25,13.615 69.03,13.615 C70.26,13.615 71.085,12.685 71.085,10.69 C71.085,8.725 70.29,7.795 69.09,7.795 Z M77.34,8.005 C76.5,8.005 75.735,8.44 75.06,9.145 L75.06,9.28 C75.06,12.49 75.975,13.66 77.355,13.66 C78.495,13.66 79.425,12.85 79.425,10.84 C79.425,8.92 78.585,8.005 77.34,8.005 Z M78.015,4.795 C76.38,4.81 75.285,5.62 75.045,8.11 C75.75,7.375 76.65,6.895 77.685,6.895 C79.425,6.895 80.7,8.275 80.7,10.735 C80.7,13.405 79.185,14.68 77.34,14.68 C75.24,14.68 73.77,13.03 73.77,9.28 C73.77,5.11 75.6,3.61 78.015,3.61 C78.87,3.61 79.515,3.595 79.92,3.46 L79.92,4.645 C79.485,4.765 78.78,4.795 78.015,4.795 Z M85.365,7.735 C84.48,7.735 83.67,8.05 82.86,8.515 L82.53,7.495 C83.355,7.045 84.405,6.67 85.605,6.67 C87.21,6.67 88.185,7.345 88.185,9.25 L88.185,12.76 C88.185,13.93 88.26,14.305 88.335,14.5 L87.12,14.5 C87.045,14.365 86.97,14.125 86.94,13.54 C86.28,14.245 85.395,14.68 84.405,14.68 C83.07,14.68 82.095,13.885 82.095,12.355 C82.095,10.72 83.205,9.79 85.68,9.79 C85.995,9.79 86.385,9.805 86.925,9.88 L86.925,9.355 C86.925,8.17 86.4,7.735 85.365,7.735 Z M84.75,13.66 C85.575,13.66 86.34,13.18 86.925,12.61 L86.925,10.78 C86.31,10.69 86.055,10.675 85.755,10.675 C83.985,10.675 83.355,11.2 83.355,12.22 C83.355,13.18 83.91,13.66 84.75,13.66 Z M95.415,14.5 L95.415,10.99 L91.665,10.99 L91.665,14.5 L90.375,14.5 L90.375,6.85 L91.665,6.85 L91.665,9.955 L95.415,9.955 L95.415,6.85 L96.705,6.85 L96.705,14.5 L95.415,14.5 Z M105.42,14.5 L104.025,14.5 L102.72,12.28 C102.195,11.395 101.835,11.02 100.77,11.02 L100.29,11.02 L100.29,14.5 L99,14.5 L99,6.85 L100.29,6.85 L100.29,10.06 L100.77,10.06 C101.505,10.06 101.715,9.865 101.97,9.415 L102.615,8.245 C103.17,7.225 103.575,6.76 104.97,6.76 L104.97,7.795 C104.22,7.795 104.025,8.005 103.77,8.455 L103.125,9.625 C102.915,10.015 102.69,10.3 102.27,10.495 C103.065,10.735 103.47,11.2 103.92,11.95 L105.42,14.5 Z"></path></g></svg>