
<svg width="19px" height="11px" viewBox="30 29 19 11" version="1.1" xmlns="http://www.w3.org/2000/svg" xmlns:xlink="http://www.w3.org/1999/xlink">
    <path d="M38.524289,43.7841079 C38.6551724,43.9244378 38.8313617,44 39.002517,44 C39.1736723,44 39.3498616,43.9298351 39.480745,43.7841079 L43.7998993,39.1532234 C44.0667002,38.8671664 44.0667002,38.4083958 43.7998993,38.1223388 C43.5330984,37.8362819 43.1052102,37.8362819 42.8384093,38.1223388 L39.6821042,41.5118441 L39.6821042,26.7286357 C39.6821042,26.3238381 39.3800654,26 39.002517,26 C38.6249685,26 38.3229298,26.3238381 38.3229298,26.7286357 L38.3229298,41.5118441 L35.1615907,38.1223388 C34.8947898,37.8362819 34.4669016,37.8362819 34.2001007,38.1223388 C33.9332998,38.4083958 33.9332998,38.8671664 34.2001007,39.1532234 L38.524289,43.7841079 Z" id="Shape-Copy" stroke="none" fill="#9D9D9D" fill-rule="evenodd" transform="translate(39.000000, 35.000000) scale(-1, 1) rotate(-90.000000) translate(-39.000000, -35.000000) "></path>
</svg>