
<svg width="4px" height="6px" viewBox="57 6 4 6" version="1.1" xmlns="http://www.w3.org/2000/svg" xmlns:xlink="http://www.w3.org/1999/xlink">
    <g id="Unknown" opacity="0.553102355" stroke="none" stroke-width="1" fill="none" fill-rule="evenodd" transform="translate(58.500000, 9.500000) rotate(-270.000000) translate(-58.500000, -9.500000) translate(56.000000, 8.000000)">
        <path d="M0.555555556,2.94444444 C0.388888889,2.94444444 0.277777778,2.88888889 0.166666667,2.77777778 C-0.0555555556,2.55555556 -0.0555555556,2.22222222 0.166666667,2 L2,0.166666667 C2.11111111,0.0555555556 2.22222222,-2.84217094e-14 2.38888889,-2.84217094e-14 C2.55555556,-2.84217094e-14 2.66666667,0.0555555556 2.77777778,0.166666667 L4.61111111,2 C4.83333333,2.22222222 4.83333333,2.55555556 4.61111111,2.77777778 C4.38888889,3 4.05555556,3 3.83333333,2.77777778 L2.38888889,1.33333333 L0.944444444,2.77777778 C0.833333333,2.88888889 0.722222222,2.94444444 0.555555556,2.94444444 Z" id="Shape" fill="#535354"></path>
    </g>
</svg>