
<svg width="20px" height="22px" viewBox="0 0 20 22" version="1.1" xmlns="http://www.w3.org/2000/svg" xmlns:xlink="http://www.w3.org/1999/xlink">
    <path d="M5.6984106,14.4725216 L17.5350552,14.4725216 C18.8772185,14.4725216 19.9721413,13.352193 19.9721413,11.9788871 L19.9721413,6.88319918 L19.9721413,6.86512936 L19.9721413,6.82898973 C19.9721413,6.81995483 19.9721413,6.81091992 19.9677263,6.80188501 C19.9677263,6.7928501 19.9633113,6.77929774 19.9633113,6.77026283 C19.9633113,6.76122793 19.9588962,6.75219302 19.9588962,6.74315811 C19.9544812,6.7341232 19.9544812,6.7250883 19.9500662,6.71153593 C19.9456512,6.70250103 19.9456512,6.69346612 19.9412362,6.68443121 C19.9368212,6.6753963 19.9368212,6.6663614 19.9324062,6.65732649 C19.9279912,6.64829158 19.9235762,6.63925667 19.9191611,6.62570431 C19.9147461,6.6166694 19.9103311,6.6076345 19.9059161,6.60311704 C19.9015011,6.59408214 19.8970861,6.58504723 19.8926711,6.57601232 C19.8882561,6.56697741 19.8838411,6.56245996 19.879426,6.55342505 C19.875011,6.54439014 19.866181,6.53535524 19.861766,6.52632033 C19.857351,6.51728542 19.852936,6.51276797 19.844106,6.50373306 C19.8396909,6.49469815 19.8308609,6.4901807 19.8264459,6.48114579 C19.8220309,6.47211088 19.8132009,6.46759343 19.8087859,6.45855852 C19.8043709,6.44952361 19.7955408,6.44500616 19.7911258,6.44048871 C19.7822958,6.4314538 19.7778808,6.42693634 19.7690508,6.41790144 C19.7602208,6.41338398 19.7558057,6.40434908 19.7469757,6.39983162 C19.7381457,6.39531417 19.7293157,6.38627926 19.7204857,6.38176181 C19.7116556,6.37724435 19.7072406,6.3727269 19.6984106,6.36820945 C19.6895806,6.36369199 19.6807506,6.35917454 19.6719205,6.35013963 C19.6630905,6.34562218 19.6542605,6.34110472 19.6454305,6.33658727 C19.6366004,6.33206982 19.6277704,6.32755236 19.6189404,6.32303491 C19.6101104,6.31851745 19.6012804,6.314 19.5924503,6.30948255 C19.5836203,6.30496509 19.5747903,6.30496509 19.5659603,6.30044764 C19.5571302,6.29593018 19.5438852,6.29141273 19.5350552,6.29141273 C19.5262252,6.29141273 19.5173951,6.28689528 19.5129801,6.28689528 C19.4997351,6.28237782 19.4909051,6.28237782 19.47766,6.28237782 C19.473245,6.28237782 19.46883,6.27786037 19.46,6.27786037 L4.45779249,4.15917454 L4.45779249,2.01790144 C4.45779249,1.99531417 4.45779249,1.9727269 4.45337748,1.95465708 C4.45337748,1.95013963 4.45337748,1.94562218 4.44896247,1.93658727 C4.44896247,1.92303491 4.44454746,1.90948255 4.44454746,1.89593018 C4.44013245,1.88237782 4.44013245,1.87334292 4.43571744,1.85979055 C4.43571744,1.85075565 4.43130243,1.84623819 4.43130243,1.83720329 C4.42688742,1.82365092 4.42247241,1.81009856 4.4180574,1.7965462 C4.4180574,1.79202875 4.41364238,1.78299384 4.41364238,1.77847639 C4.40922737,1.76492402 4.40481236,1.75588912 4.39598234,1.74233676 C4.39156733,1.7378193 4.39156733,1.72878439 4.38715232,1.72426694 C4.38273731,1.71523203 4.3783223,1.70619713 4.36949227,1.69716222 C4.36507726,1.68812731 4.36066225,1.68360986 4.35624724,1.67457495 C4.35183223,1.66554004 4.34741722,1.66102259 4.34300221,1.65198768 C4.3385872,1.64295277 4.32975717,1.63391786 4.32534216,1.62488296 C4.32092715,1.6203655 4.31651214,1.61584805 4.31209713,1.6113306 C4.30326711,1.60229569 4.29443709,1.59326078 4.28560706,1.58422587 C4.28119205,1.57970842 4.27677704,1.57519097 4.27236203,1.57067351 C4.26353201,1.5616386 4.25470199,1.5526037 4.24145695,1.54356879 C4.23704194,1.53905133 4.22821192,1.53453388 4.22379691,1.53001643 C4.21496689,1.52098152 4.20613687,1.51646407 4.19730684,1.50742916 C4.18406181,1.49839425 4.17081678,1.48935934 4.16198675,1.48484189 C4.15757174,1.48032444 4.15315673,1.48032444 4.14874172,1.47580698 C4.13108168,1.46677207 4.10900662,1.45773717 4.09134658,1.44870226 L0.837483444,0.0482915811 C0.532847682,-0.0827145791 0.18406181,0.0618439425 0.0560264901,0.373548255 C-0.07200883,0.685252567 0.0692715232,1.04213142 0.373907285,1.17313758 L3.2613245,2.41995483 L3.2613245,5.18463655 L3.2613245,5.62282957 L3.2613245,8.9838152 L3.2613245,11.987922 L3.2613245,15.7825832 C3.2613245,17.0474702 4.18847682,18.0955195 5.38494481,18.2536304 C5.16860927,18.6240616 5.04057395,19.0577372 5.04057395,19.5185175 C5.04057395,20.878271 6.12225166,21.9805298 7.44675497,21.9805298 C8.77125828,21.9805298 9.85293598,20.8737536 9.85293598,19.5185175 C9.85293598,19.0667721 9.73373068,18.637614 9.52181015,18.2762177 L14.8816336,18.2762177 C14.669713,18.6421314 14.5505077,19.0667721 14.5505077,19.5185175 C14.5505077,20.878271 15.6321854,21.9805298 16.9566887,21.9805298 C18.2811921,21.9805298 19.3628698,20.8737536 19.3628698,19.5185175 C19.3628698,18.1632813 18.2811921,17.0565051 16.9566887,17.0565051 L5.6984106,17.0565051 C5.00966887,17.0565051 4.45337748,16.4827885 4.45337748,15.7825832 L4.45337748,14.1291951 C4.81540839,14.3460329 5.24366446,14.4725216 5.6984106,14.4725216 Z M8.66529801,19.514 C8.66529801,20.200653 8.11783664,20.7562998 7.45116998,20.7562998 C6.78450331,20.7562998 6.23704194,20.1961355 6.23704194,19.514 C6.23704194,18.8318645 6.78450331,18.2717002 7.45116998,18.2717002 C8.11783664,18.2717002 8.66529801,18.827347 8.66529801,19.514 Z M18.1752318,19.514 C18.1752318,20.200653 17.6277704,20.7562998 16.9611038,20.7562998 C16.2944371,20.7562998 15.7469757,20.1961355 15.7469757,19.514 C15.7469757,18.8318645 16.2944371,18.2717002 16.9611038,18.2717002 C17.6277704,18.2717002 18.1752318,18.827347 18.1752318,19.514 Z M17.5350552,13.252809 L5.6984106,13.252809 C5.00966887,13.252809 4.45337748,12.6790924 4.45337748,11.9788871 L4.45337748,8.97478029 L4.45337748,5.61379466 L4.45337748,5.38792197 L18.7800883,7.40722382 L18.7800883,11.9743696 C18.7800883,12.6836099 18.2193819,13.252809 17.5350552,13.252809 Z" id="Shape" stroke="none" fill="#FF8548" fill-rule="evenodd"></path>
</svg>