
<svg width="34px" height="34px" viewBox="0 0 34 34" version="1.1" xmlns="http://www.w3.org/2000/svg" xmlns:xlink="http://www.w3.org/1999/xlink">
    <path d="M18.1476889,10.5218667 C17.4864698,9.86053968 16.4129333,9.86053968 15.7518222,10.5218667 L15.7509587,10.5218667 C15.7492317,10.5235937 15.7483683,10.5253206 15.7475048,10.5261841 L10.9584698,15.3146794 C10.2964952,15.9762222 10.2964952,17.0502984 10.9584698,17.7117333 L10.9584698,17.7107619 C11.6200127,18.3726286 12.6927937,18.3726286 13.3547683,17.7107619 L15.2552063,15.8112952 L15.2552063,22.8814603 C15.2552063,23.8166222 16.0143238,24.5761714 16.9499175,24.5761714 C17.8855111,24.5761714 18.6440889,23.8166222 18.6440889,22.8814603 L18.6440889,15.8112952 L20.5439873,17.7107619 C21.2061778,18.3726286 22.2792825,18.3726286 22.9402857,17.7107619 L22.9402857,17.7117333 C23.6024762,17.0502984 23.6024762,15.9763302 22.9402857,15.3146794 L18.1476889,10.5218667 L18.1476889,10.5218667 Z M31.6258286,8.47571429 C26.9461333,0.370869841 16.5812063,-2.40644444 8.4763619,2.27325079 C0.370869841,6.95229841 -2.40655238,17.3176571 2.27400635,25.423581 C6.95305397,33.5282095 17.3176571,36.3059556 25.4226095,31.6263683 C33.5282095,26.9461333 36.3060635,16.5813143 31.6258286,8.47571429 L31.6258286,8.47571429 Z M23.7283302,28.6897397 C17.2440444,32.4335175 8.95246984,30.2131556 5.20901587,23.7280063 C1.46469841,17.2441524 3.68743492,8.95182222 10.171073,5.20826032 C16.654927,1.46469841 24.9469333,3.68646349 28.6906032,10.171073 C32.434381,16.6554667 30.2122921,24.9460698 23.7283302,28.6897397 L23.7283302,28.6897397 Z" id="Shape" stroke="none" fill="#D6D6D6" fill-rule="evenodd"></path>
</svg>
